<mxfile host="app.diagrams.net" agent="Mozilla/5.0 (Windows NT 10.0; Win64; x64) AppleWebKit/537.36 (KHTML, like Gecko) Chrome/131.0.0.0 Safari/537.36" version="24.8.6">
  <diagram name="Halaman-1" id="FuyISmv2RDdz-aR-WApy">
    <mxGraphModel dx="1461" dy="652" grid="1" gridSize="10" guides="1" tooltips="1" connect="1" arrows="1" fold="1" page="1" pageScale="1" pageWidth="827" pageHeight="1169" math="0" shadow="0">
      <root>
        <mxCell id="0" />
        <mxCell id="1" parent="0" />
        <mxCell id="25mvn0lB7EW0FMN9ivJj-1" value="&lt;&lt;abstract&gt;&gt;&#xa;Order" style="swimlane;fontStyle=1;align=center;verticalAlign=top;childLayout=stackLayout;horizontal=1;startSize=50.42857033865793;horizontalStack=0;resizeParent=1;resizeParentMax=0;resizeLast=0;collapsible=0;marginBottom=0;" vertex="1" parent="1">
          <mxGeometry x="237" y="20" width="144" height="126.42857033865792" as="geometry" />
        </mxCell>
        <mxCell id="25mvn0lB7EW0FMN9ivJj-2" value="- String orderDate" style="text;strokeColor=none;fillColor=none;align=left;verticalAlign=top;spacingLeft=4;spacingRight=4;overflow=hidden;rotatable=0;points=[[0,0.5],[1,0.5]];portConstraint=eastwest;" vertex="1" parent="25mvn0lB7EW0FMN9ivJj-1">
          <mxGeometry y="50.42857033865793" width="144" height="34" as="geometry" />
        </mxCell>
        <mxCell id="25mvn0lB7EW0FMN9ivJj-3" style="line;strokeWidth=1;fillColor=none;align=left;verticalAlign=middle;spacingTop=-1;spacingLeft=3;spacingRight=3;rotatable=0;labelPosition=right;points=[];portConstraint=eastwest;strokeColor=inherit;" vertex="1" parent="25mvn0lB7EW0FMN9ivJj-1">
          <mxGeometry y="84.42857033865792" width="144" height="8" as="geometry" />
        </mxCell>
        <mxCell id="25mvn0lB7EW0FMN9ivJj-4" value="+confirmOrder()" style="text;strokeColor=none;fillColor=none;align=left;verticalAlign=top;spacingLeft=4;spacingRight=4;overflow=hidden;rotatable=0;points=[[0,0.5],[1,0.5]];portConstraint=eastwest;" vertex="1" parent="25mvn0lB7EW0FMN9ivJj-1">
          <mxGeometry y="92.42857033865792" width="144" height="34" as="geometry" />
        </mxCell>
        <mxCell id="25mvn0lB7EW0FMN9ivJj-5" value="&lt;&lt;interface&gt;&gt;&#xa;OrderStatusTracking" style="swimlane;fontStyle=1;align=center;verticalAlign=top;childLayout=stackLayout;horizontal=1;startSize=47.5;horizontalStack=0;resizeParent=1;resizeParentMax=0;resizeLast=0;collapsible=0;marginBottom=0;" vertex="1" parent="1">
          <mxGeometry x="225.5" y="390" width="167" height="87.5" as="geometry" />
        </mxCell>
        <mxCell id="25mvn0lB7EW0FMN9ivJj-6" style="line;strokeWidth=1;fillColor=none;align=left;verticalAlign=middle;spacingTop=-1;spacingLeft=3;spacingRight=3;rotatable=0;labelPosition=right;points=[];portConstraint=eastwest;strokeColor=inherit;" vertex="1" parent="25mvn0lB7EW0FMN9ivJj-5">
          <mxGeometry y="47.5" width="167" height="8" as="geometry" />
        </mxCell>
        <mxCell id="25mvn0lB7EW0FMN9ivJj-7" value="+trackStatus()" style="text;strokeColor=none;fillColor=none;align=left;verticalAlign=top;spacingLeft=4;spacingRight=4;overflow=hidden;rotatable=0;points=[[0,0.5],[1,0.5]];portConstraint=eastwest;" vertex="1" parent="25mvn0lB7EW0FMN9ivJj-5">
          <mxGeometry y="55.5" width="167" height="32" as="geometry" />
        </mxCell>
        <mxCell id="25mvn0lB7EW0FMN9ivJj-8" value="MailOrder" style="swimlane;fontStyle=1;align=center;verticalAlign=top;childLayout=stackLayout;horizontal=1;startSize=27.142857142857142;horizontalStack=0;resizeParent=1;resizeParentMax=0;resizeLast=0;collapsible=0;marginBottom=0;" vertex="1" parent="1">
          <mxGeometry x="28" y="196" width="131" height="89.14285714285714" as="geometry" />
        </mxCell>
        <mxCell id="25mvn0lB7EW0FMN9ivJj-9" style="line;strokeWidth=1;fillColor=none;align=left;verticalAlign=middle;spacingTop=-1;spacingLeft=3;spacingRight=3;rotatable=0;labelPosition=right;points=[];portConstraint=eastwest;strokeColor=inherit;" vertex="1" parent="25mvn0lB7EW0FMN9ivJj-8">
          <mxGeometry y="27.142857142857142" width="131" height="8" as="geometry" />
        </mxCell>
        <mxCell id="25mvn0lB7EW0FMN9ivJj-10" value="+confirmOrder()" style="text;strokeColor=none;fillColor=none;align=left;verticalAlign=top;spacingLeft=4;spacingRight=4;overflow=hidden;rotatable=0;points=[[0,0.5],[1,0.5]];portConstraint=eastwest;" vertex="1" parent="25mvn0lB7EW0FMN9ivJj-8">
          <mxGeometry y="35.14285714285714" width="131" height="27" as="geometry" />
        </mxCell>
        <mxCell id="25mvn0lB7EW0FMN9ivJj-11" value="+trackStatus()" style="text;strokeColor=none;fillColor=none;align=left;verticalAlign=top;spacingLeft=4;spacingRight=4;overflow=hidden;rotatable=0;points=[[0,0.5],[1,0.5]];portConstraint=eastwest;" vertex="1" parent="25mvn0lB7EW0FMN9ivJj-8">
          <mxGeometry y="62.14285714285714" width="131" height="27" as="geometry" />
        </mxCell>
        <mxCell id="25mvn0lB7EW0FMN9ivJj-12" value="WebOrder" style="swimlane;fontStyle=1;align=center;verticalAlign=top;childLayout=stackLayout;horizontal=1;startSize=27.142857142857142;horizontalStack=0;resizeParent=1;resizeParentMax=0;resizeLast=0;collapsible=0;marginBottom=0;" vertex="1" parent="1">
          <mxGeometry x="435" y="196" width="131" height="89.14285714285714" as="geometry" />
        </mxCell>
        <mxCell id="25mvn0lB7EW0FMN9ivJj-13" style="line;strokeWidth=1;fillColor=none;align=left;verticalAlign=middle;spacingTop=-1;spacingLeft=3;spacingRight=3;rotatable=0;labelPosition=right;points=[];portConstraint=eastwest;strokeColor=inherit;" vertex="1" parent="25mvn0lB7EW0FMN9ivJj-12">
          <mxGeometry y="27.142857142857142" width="131" height="8" as="geometry" />
        </mxCell>
        <mxCell id="25mvn0lB7EW0FMN9ivJj-14" value="+confirmOrder()" style="text;strokeColor=none;fillColor=none;align=left;verticalAlign=top;spacingLeft=4;spacingRight=4;overflow=hidden;rotatable=0;points=[[0,0.5],[1,0.5]];portConstraint=eastwest;" vertex="1" parent="25mvn0lB7EW0FMN9ivJj-12">
          <mxGeometry y="35.14285714285714" width="131" height="27" as="geometry" />
        </mxCell>
        <mxCell id="25mvn0lB7EW0FMN9ivJj-15" value="+trackStatus()" style="text;strokeColor=none;fillColor=none;align=left;verticalAlign=top;spacingLeft=4;spacingRight=4;overflow=hidden;rotatable=0;points=[[0,0.5],[1,0.5]];portConstraint=eastwest;" vertex="1" parent="25mvn0lB7EW0FMN9ivJj-12">
          <mxGeometry y="62.14285714285714" width="131" height="27" as="geometry" />
        </mxCell>
        <mxCell id="25mvn0lB7EW0FMN9ivJj-16" value="WhatsappOrder" style="swimlane;fontStyle=1;align=center;verticalAlign=top;childLayout=stackLayout;horizontal=1;startSize=28.933334350585938;horizontalStack=0;resizeParent=1;resizeParentMax=0;resizeLast=0;collapsible=0;marginBottom=0;" vertex="1" parent="1">
          <mxGeometry x="243" y="207" width="132" height="65.93333435058594" as="geometry" />
        </mxCell>
        <mxCell id="25mvn0lB7EW0FMN9ivJj-17" style="line;strokeWidth=1;fillColor=none;align=left;verticalAlign=middle;spacingTop=-1;spacingLeft=3;spacingRight=3;rotatable=0;labelPosition=right;points=[];portConstraint=eastwest;strokeColor=inherit;" vertex="1" parent="25mvn0lB7EW0FMN9ivJj-16">
          <mxGeometry y="28.933334350585938" width="132" height="8" as="geometry" />
        </mxCell>
        <mxCell id="25mvn0lB7EW0FMN9ivJj-18" value="+confirmOrder()" style="text;strokeColor=none;fillColor=none;align=left;verticalAlign=top;spacingLeft=4;spacingRight=4;overflow=hidden;rotatable=0;points=[[0,0.5],[1,0.5]];portConstraint=eastwest;" vertex="1" parent="25mvn0lB7EW0FMN9ivJj-16">
          <mxGeometry y="36.93333435058594" width="132" height="29" as="geometry" />
        </mxCell>
        <mxCell id="25mvn0lB7EW0FMN9ivJj-19" value="" style="curved=1;startArrow=block;startSize=16;startFill=0;endArrow=none;exitX=0;exitY=0.25;entryX=0.5;entryY=0;rounded=0;exitDx=0;exitDy=0;entryDx=0;entryDy=0;" edge="1" parent="1" source="25mvn0lB7EW0FMN9ivJj-1" target="25mvn0lB7EW0FMN9ivJj-8">
          <mxGeometry relative="1" as="geometry">
            <Array as="points" />
          </mxGeometry>
        </mxCell>
        <mxCell id="25mvn0lB7EW0FMN9ivJj-20" value="" style="curved=1;startArrow=block;startSize=16;startFill=0;endArrow=none;exitX=1;exitY=0.25;entryX=0.5;entryY=0;rounded=0;exitDx=0;exitDy=0;" edge="1" parent="1" source="25mvn0lB7EW0FMN9ivJj-1" target="25mvn0lB7EW0FMN9ivJj-12">
          <mxGeometry relative="1" as="geometry">
            <Array as="points" />
          </mxGeometry>
        </mxCell>
        <mxCell id="25mvn0lB7EW0FMN9ivJj-21" value="" style="curved=1;startArrow=block;startSize=16;startFill=0;endArrow=none;exitX=0.5;exitY=1;entryX=0.5;entryY=0;rounded=0;" edge="1" parent="1" source="25mvn0lB7EW0FMN9ivJj-1" target="25mvn0lB7EW0FMN9ivJj-16">
          <mxGeometry relative="1" as="geometry">
            <Array as="points" />
          </mxGeometry>
        </mxCell>
        <mxCell id="25mvn0lB7EW0FMN9ivJj-22" value="" style="curved=1;dashed=1;startArrow=block;startSize=16;startFill=0;endArrow=none;exitX=0.25;exitY=0;entryX=0.505;entryY=0.986;rounded=0;exitDx=0;exitDy=0;entryDx=0;entryDy=0;entryPerimeter=0;" edge="1" parent="1" source="25mvn0lB7EW0FMN9ivJj-5" target="25mvn0lB7EW0FMN9ivJj-11">
          <mxGeometry relative="1" as="geometry">
            <Array as="points" />
          </mxGeometry>
        </mxCell>
        <mxCell id="25mvn0lB7EW0FMN9ivJj-23" value="" style="curved=1;dashed=1;startArrow=block;startSize=16;startFill=0;endArrow=none;entryX=0.519;entryY=1.118;rounded=0;exitX=0.75;exitY=0;exitDx=0;exitDy=0;entryDx=0;entryDy=0;entryPerimeter=0;" edge="1" parent="1" source="25mvn0lB7EW0FMN9ivJj-5" target="25mvn0lB7EW0FMN9ivJj-15">
          <mxGeometry relative="1" as="geometry">
            <Array as="points" />
            <mxPoint x="393" y="450" as="sourcePoint" />
          </mxGeometry>
        </mxCell>
      </root>
    </mxGraphModel>
  </diagram>
</mxfile>
